<svg xmlns="http://www.w3.org/2000/svg" width="500" height="500" viewBox="0 0 500 500" version="1.1"><path d="M 187.849 83.320 C 181.725 85.059, 178.583 87.212, 175.047 92.094 C 171.164 97.454, 170.597 100.696, 172.361 107.451 C 176.356 122.748, 179.825 123.885, 226 125.031 C 262.446 125.934, 268.583 126.811, 276.876 132.299 C 290.840 141.540, 296.837 162.207, 294.191 191.965 C 292.702 208.708, 290.964 212.933, 282.193 221.138 C 270.972 231.635, 272.245 231.369, 230 232.066 C 200.335 232.556, 192.686 232.965, 189.155 234.250 C 186.589 235.184, 181.800 238.628, 177.455 242.666 L 170.099 249.500 170.429 323 C 170.777 400.355, 171.249 409.668, 175.341 419.897 C 178.411 427.570, 181.712 429.205, 193.333 428.804 C 201.850 428.511, 202.268 428.385, 205.034 425.289 C 210.475 419.198, 211.547 409.350, 212.961 352.500 C 213.522 329.950, 214.256 303.776, 214.594 294.336 L 215.208 277.171 224.854 276.566 C 264.749 274.063, 274.031 272.792, 287.017 268.053 C 301.780 262.665, 313.072 253.332, 322.853 238.433 C 334.062 221.358, 337.517 207.970, 337.413 182 C 337.254 142.082, 328.323 119.725, 304.566 99.772 C 288.417 86.209, 276.131 83.763, 218 82.537 C 198.536 82.127, 191.399 82.312, 187.849 83.320" stroke="none" fill="#f7f8f8" fill-rule="evenodd"/><path d="M 0 250.002 L 0 500.004 250.250 499.752 L 500.500 499.500 500.752 249.750 L 501.004 0 250.502 0 L 0 0 0 250.002 M 0.492 250.500 C 0.492 388, 0.608 444.101, 0.750 375.170 C 0.892 306.238, 0.892 193.738, 0.750 125.170 C 0.608 56.601, 0.492 113, 0.492 250.500 M 187.849 83.320 C 181.725 85.059, 178.583 87.212, 175.047 92.094 C 171.164 97.454, 170.597 100.696, 172.361 107.451 C 176.356 122.748, 179.825 123.885, 226 125.031 C 262.446 125.934, 268.583 126.811, 276.876 132.299 C 290.840 141.540, 296.837 162.207, 294.191 191.965 C 292.702 208.708, 290.964 212.933, 282.193 221.138 C 270.972 231.635, 272.245 231.369, 230 232.066 C 200.335 232.556, 192.686 232.965, 189.155 234.250 C 186.589 235.184, 181.800 238.628, 177.455 242.666 L 170.099 249.500 170.429 323 C 170.777 400.355, 171.249 409.668, 175.341 419.897 C 178.411 427.570, 181.712 429.205, 193.333 428.804 C 201.850 428.511, 202.268 428.385, 205.034 425.289 C 210.475 419.198, 211.547 409.350, 212.961 352.500 C 213.522 329.950, 214.256 303.776, 214.594 294.336 L 215.208 277.171 224.854 276.566 C 264.749 274.063, 274.031 272.792, 287.017 268.053 C 301.780 262.665, 313.072 253.332, 322.853 238.433 C 334.062 221.358, 337.517 207.970, 337.413 182 C 337.254 142.082, 328.323 119.725, 304.566 99.772 C 288.417 86.209, 276.131 83.763, 218 82.537 C 198.536 82.127, 191.399 82.312, 187.849 83.320" stroke="none" fill="#041c4c" fill-rule="evenodd"/></svg>