<?xml version="1.0" standalone="no"?>
<!DOCTYPE svg PUBLIC "-//W3C//DTD SVG 20010904//EN"
 "http://www.w3.org/TR/2001/REC-SVG-20010904/DTD/svg10.dtd">
<svg version="1.0" xmlns="http://www.w3.org/2000/svg"
 width="580.000000pt" height="116.000000pt" viewBox="0 0 580.000000 116.000000"
 preserveAspectRatio="xMidYMid meet">

<g transform="translate(0.000000,116.000000) scale(0.100000,-0.100000)"
fill="#000000" stroke="none">
<path d="M3953 1035 c-120 -60 -157 -208 -80 -322 43 -63 101 -93 181 -93 100
0 158 50 122 105 -18 28 -40 31 -96 14 -26 -8 -43 -8 -56 -1 -15 8 0 19 94 66
61 31 116 65 122 75 18 35 11 69 -22 107 -67 76 -172 95 -265 49z m147 -100
c0 -8 -142 -77 -147 -71 -8 8 25 49 49 63 22 12 98 18 98 8z"/>
<path d="M5505 1049 c-81 -23 -145 -116 -145 -210 1 -128 93 -219 222 -219 74
0 122 26 126 66 5 56 -37 77 -106 53 -20 -7 -37 -7 -48 -1 -15 8 2 20 93 65
118 60 141 85 128 140 -8 31 -65 84 -111 103 -37 15 -113 17 -159 3z m115
-117 c0 -7 -122 -72 -135 -72 -14 0 -1 26 26 51 23 22 41 29 70 29 21 0 39 -4
39 -8z"/>
<path d="M60 1030 c-16 -16 -20 -29 -15 -48 11 -45 30 -52 149 -52 92 0 116
-3 142 -19 41 -25 57 -75 52 -158 -4 -59 -8 -69 -36 -94 -32 -28 -35 -29 -148
-29 -109 0 -116 -1 -139 -25 l-25 -24 0 -228 c0 -252 5 -273 58 -273 56 0 57
3 62 222 l5 203 90 5 c107 6 160 30 205 92 40 55 53 108 48 198 -5 83 -25 136
-71 181 -55 55 -81 63 -224 67 -124 4 -132 3 -153 -18z"/>
<path d="M560 1030 c-24 -24 -25 -48 -4 -78 15 -21 21 -22 193 -22 186 0 203
4 215 46 4 13 -1 30 -15 47 l-20 27 -175 0 c-161 0 -176 -2 -194 -20z"/>
<path d="M1167 1036 c-95 -34 -157 -124 -157 -228 0 -109 35 -160 196 -289 63
-50 121 -101 129 -112 9 -13 15 -45 15 -82 0 -53 -4 -65 -26 -86 -23 -22 -36
-24 -149 -29 -102 -4 -126 -8 -144 -24 -24 -22 -27 -54 -7 -82 13 -17 27 -19
138 -19 146 0 185 11 244 71 81 81 94 218 29 315 -14 21 -79 82 -145 135 -66
52 -129 111 -141 130 -30 49 -23 125 15 162 25 26 32 27 144 30 129 4 152 13
152 63 0 47 -30 59 -150 59 -61 -1 -121 -6 -143 -14z"/>
<path d="M1507 1032 c-10 -10 -17 -29 -17 -43 0 -45 14 -54 97 -59 l78 -5 3
-409 c1 -282 6 -413 13 -423 15 -17 60 -17 85 1 18 14 19 32 22 425 l3 411 67
0 c73 0 83 4 101 38 12 23 1 58 -23 74 -6 4 -101 8 -212 8 -182 0 -202 -2
-217 -18z"/>
<path d="M2002 1034 c-27 -19 -29 -64 -4 -87 16 -15 45 -17 194 -17 157 0 177
2 191 18 24 26 21 68 -5 86 -18 13 -54 16 -188 16 -134 0 -170 -3 -188 -16z"/>
<path d="M2496 1034 c-14 -14 -16 -69 -16 -460 l0 -445 25 -24 c24 -25 27 -25
187 -25 129 0 168 3 185 15 19 13 24 13 51 -2 60 -34 66 -25 197 303 l120 299
5 -293 c4 -246 7 -294 20 -302 25 -16 66 -15 87 2 6 5 62 136 124 291 61 155
116 286 120 291 5 6 9 -120 9 -281 0 -320 1 -323 60 -323 60 0 60 0 60 481 0
426 0 437 -21 463 -25 31 -68 35 -93 7 -9 -10 -68 -146 -131 -302 l-114 -284
-1 273 c0 269 -4 304 -34 324 -19 13 -59 9 -76 -7 -10 -9 -93 -207 -185 -440
-165 -415 -169 -424 -188 -407 -16 14 -43 18 -153 20 l-134 4 0 399 c0 257 -4
407 -10 420 -13 24 -72 26 -94 3z"/>
<path d="M4521 1036 c-48 -17 -108 -71 -133 -119 -31 -58 -31 -165 -1 -222 25
-47 87 -109 198 -197 96 -76 125 -116 125 -172 0 -49 -31 -104 -62 -110 -13
-3 -74 -7 -135 -8 -119 -3 -134 -9 -148 -55 -4 -17 1 -29 19 -48 23 -23 32
-25 124 -25 134 0 194 19 252 79 66 68 87 158 58 255 -14 46 -85 122 -212 226
-105 86 -121 109 -120 169 3 99 37 121 187 121 67 0 109 4 119 13 27 21 30 52
7 80 -20 26 -23 27 -132 26 -62 0 -127 -6 -146 -13z"/>
<path d="M4862 1034 c-26 -18 -28 -50 -6 -82 13 -19 24 -22 90 -22 l74 0 0
-409 c0 -450 -1 -441 60 -441 60 0 60 3 60 447 l0 403 70 0 c76 0 110 19 110
60 0 11 -9 29 -20 40 -19 19 -33 20 -218 20 -163 0 -201 -3 -220 -16z"/>
<path d="M573 620 c-30 -12 -39 -54 -19 -85 l16 -25 184 0 c193 0 196 1 210
47 5 17 1 29 -18 48 -25 25 -27 25 -188 24 -90 0 -173 -4 -185 -9z"/>
<path d="M2002 614 c-26 -18 -30 -65 -6 -88 13 -13 45 -16 194 -16 197 0 210
4 210 60 0 53 -25 60 -210 60 -134 0 -170 -3 -188 -16z"/>
<path d="M3855 495 c-30 -29 -31 -45 -6 -76 15 -19 30 -24 85 -27 l66 -4 0
-88 0 -88 -66 -4 c-55 -3 -70 -8 -85 -27 -25 -31 -24 -47 6 -77 l25 -25 186 3
c170 3 187 5 200 22 39 53 2 98 -86 104 l-60 4 0 89 0 89 54 0 c61 0 106 27
106 63 -1 58 -31 67 -230 67 -168 0 -171 0 -195 -25z"/>
<path d="M5480 493 c-40 -21 -63 -42 -85 -78 -28 -46 -30 -55 -33 -172 -4
-139 5 -163 59 -163 48 0 59 30 59 153 0 108 0 109 30 139 29 29 34 30 83 24
81 -11 100 -9 114 11 39 52 -14 105 -110 111 -53 3 -70 0 -117 -25z"/>
<path d="M581 198 c-33 -18 -45 -40 -38 -70 11 -40 44 -48 218 -48 158 0 160
0 185 25 27 27 26 55 -2 85 -20 21 -327 27 -363 8z"/>
<path d="M2025 203 c-47 -11 -62 -80 -23 -107 29 -21 329 -23 368 -3 46 23 39
88 -11 106 -31 11 -292 14 -334 4z"/>
</g>
</svg>
